<svg xmlns="http://www.w3.org/2000/svg" xmlns:xlink="http://www.w3.org/1999/xlink" version="1.1" x="0px" y="0px" viewBox="0 0 100 100" enable-background="new 0 0 100 100" xml:space="preserve"><path d="M57.293,54.568c0,4.029-3.263,7.296-7.293,7.296c-4.027,0-7.293-3.267-7.293-7.296c0-4.027,3.266-7.291,7.293-7.291  C54.028,47.277,57.293,50.541,57.293,54.568z M78.967,52.085c-0.036,0.083-0.078,0.163-0.125,0.24C78.34,53.148,66.358,72.5,50,72.5  S21.66,53.148,21.158,52.325c-0.047-0.077-0.089-0.157-0.125-0.24c-0.081-0.187-1.968-4.623,0.18-9.875  c1.911-4.671,6.298-8.414,13.039-11.125c4.501-1.81,8.787-3.329,15.674-3.584c0.049-0.002,0.1-0.002,0.148,0  c6.888,0.256,11.173,1.774,15.673,3.584c6.742,2.711,11.129,6.454,13.04,11.125C80.935,47.462,79.048,51.898,78.967,52.085z   M71.34,55.756l-4.514-2.405c-0.697,0.338-1.47,0.544-2.297,0.544c-2.926,0-5.294-2.37-5.294-5.295c0-2.924,2.368-5.295,5.294-5.295  c2.761,0,5.003,2.123,5.247,4.82l5.22,2.781c0.157-0.236,0.275-0.418,0.347-0.53c0.214-0.583,1.102-3.4-0.289-6.725  c-1.506-3.599-5.139-6.578-10.799-8.854C60.125,33.136,56.2,31.742,50,31.501c-6.209,0.24-9.979,1.576-14.256,3.295  c-5.659,2.276-9.292,5.255-10.798,8.854c-1.385,3.31-0.511,6.117-0.287,6.728c0.071,0.112,0.188,0.293,0.345,0.527l5.22-2.781  c0.244-2.698,2.486-4.82,5.247-4.82c2.926,0,5.294,2.371,5.294,5.295c0,2.925-2.368,5.295-5.294,5.295  c-0.827,0-1.6-0.206-2.297-0.544l-4.514,2.404C33.17,61.131,40.992,68.5,50,68.5S66.83,61.131,71.34,55.756z"></path></svg>